<svg xmlns="http://www.w3.org/2000/svg" viewBox="0 0 261.17 52.51"><defs><style>.cls-1{fill:#005e85;}.cls-2{fill:#92c0e9;}</style></defs><g id="Capa_2" data-name="Capa 2"><g id="Capa_1-2" data-name="Capa 1"><path class="cls-1" d="M7.44,13.09a6.48,6.48,0,0,0,1.26,4A10.69,10.69,0,0,0,12,20a24.35,24.35,0,0,0,4.69,2l5.4,1.71c2,.65,4,1.34,5.84,2.09a19.61,19.61,0,0,1,4.91,2.78,11.85,11.85,0,0,1,4.64,10,11.74,11.74,0,0,1-1.46,5.67,13.53,13.53,0,0,1-4,4.53,18.92,18.92,0,0,1-6.12,2.8,28.91,28.91,0,0,1-7.62,1A28.41,28.41,0,0,1,12.69,52a25.68,25.68,0,0,1-4.85-1.43,23.92,23.92,0,0,1-4.06-2.14A20.18,20.18,0,0,1,.54,45.75a1.89,1.89,0,0,1-.42-.67A2.53,2.53,0,0,1,0,44.31a2.94,2.94,0,0,1,.2-1,3.24,3.24,0,0,1,.52-.93,2.94,2.94,0,0,1,.72-.69,1.37,1.37,0,0,1,.79-.27,2.28,2.28,0,0,1,1.31.47c.45.31.88.62,1.31.94.77.55,1.61,1.09,2.52,1.63a19.46,19.46,0,0,0,3,1.44,22,22,0,0,0,3.67,1,23.88,23.88,0,0,0,4.4.38,21.14,21.14,0,0,0,4.9-.54A12.42,12.42,0,0,0,27.3,45.1a8.07,8.07,0,0,0,2.6-2.7,6.66,6.66,0,0,0,1-3.45,7.26,7.26,0,0,0-1.26-4.32,10.41,10.41,0,0,0-3.31-3,24,24,0,0,0-4.68-2l-5.36-1.71q-3-1-5.77-2.15a21.44,21.44,0,0,1-4.92-2.88,13,13,0,0,1-3.42-4.05A11.18,11.18,0,0,1,.86,13.45,11,11,0,0,1,2.34,7.89,13.56,13.56,0,0,1,6.28,3.56,18,18,0,0,1,12,.9a24.74,24.74,0,0,1,6.7-.9,25.58,25.58,0,0,1,9.59,1.69,20.83,20.83,0,0,1,7.5,5.18,1.55,1.55,0,0,1,.37.72,3.85,3.85,0,0,1,.09.86,3.48,3.48,0,0,1-.12.86,2.36,2.36,0,0,1-.43.85,2.57,2.57,0,0,1-.78.63,2.28,2.28,0,0,1-1.11.25,3.57,3.57,0,0,1-2.34-1.29Q30.28,8.88,29,8.07a16.81,16.81,0,0,0-2.78-1.4,20.75,20.75,0,0,0-3.24-1,18.89,18.89,0,0,0-7.86.11,13.86,13.86,0,0,0-3.81,1.43A8.47,8.47,0,0,0,8.52,9.78,5.69,5.69,0,0,0,7.44,13.09Z"/><path class="cls-1" d="M46.07,26.25a34.07,34.07,0,0,1,1.58-10.43,23.94,23.94,0,0,1,4.64-8.45,20.59,20.59,0,0,1,7.57-5.45A26.23,26.23,0,0,1,70.2,0,26.09,26.09,0,0,1,80.52,1.92a20.48,20.48,0,0,1,7.54,5.45,24.22,24.22,0,0,1,4.62,8.45,34.07,34.07,0,0,1,1.58,10.43,34,34,0,0,1-1.58,10.43,24,24,0,0,1-4.62,8.44,20.68,20.68,0,0,1-7.54,5.44A25.74,25.74,0,0,1,70.2,52.51a25.87,25.87,0,0,1-10.34-1.95,20.79,20.79,0,0,1-7.57-5.44,23.72,23.72,0,0,1-4.64-8.44A34,34,0,0,1,46.07,26.25Zm6.87,0a31.52,31.52,0,0,0,1,7.65A20.32,20.32,0,0,0,57,40.76a15.63,15.63,0,0,0,5.36,4.75,16.27,16.27,0,0,0,7.88,1.78A16.16,16.16,0,0,0,78,45.51a15.79,15.79,0,0,0,5.38-4.75,20.15,20.15,0,0,0,3.07-6.86,30.45,30.45,0,0,0,0-15.25,20.48,20.48,0,0,0-3.07-6.89A15.74,15.74,0,0,0,78,7,16.27,16.27,0,0,0,70.2,5.21,16.38,16.38,0,0,0,62.32,7,15.58,15.58,0,0,0,57,11.76a20.65,20.65,0,0,0-3.05,6.89A31.25,31.25,0,0,0,52.94,26.25Z"/><path class="cls-1" d="M143.21,47.83a3.65,3.65,0,0,1,.17,1A2.45,2.45,0,0,1,143.1,50a2.76,2.76,0,0,1-.78.92,3.57,3.57,0,0,1-1.09.58,4,4,0,0,1-1.23.19,3.07,3.07,0,0,1-1.61-.44,2.46,2.46,0,0,1-1.08-1.46l-17-40.51h0L102.71,49.81a2.61,2.61,0,0,1-1.08,1.47,2.91,2.91,0,0,1-1.54.43,3.66,3.66,0,0,1-1.19-.19,3.27,3.27,0,0,1-1-.58,3,3,0,0,1-.73-.9,2.19,2.19,0,0,1-.29-1.13,3.41,3.41,0,0,1,.21-1.08L114.18,6a17.47,17.47,0,0,1,1.37-2.91,7.26,7.26,0,0,1,1.38-1.71,3.63,3.63,0,0,1,1.48-.79,7.07,7.07,0,0,1,3.34,0,3.69,3.69,0,0,1,1.5.81,7.17,7.17,0,0,1,1.38,1.71A20.26,20.26,0,0,1,126,6Z"/><path class="cls-2" d="M152.66,3.49a3.07,3.07,0,0,1,.27-1.33,2.72,2.72,0,0,1,.74-1,3.4,3.4,0,0,1,1-.57,3.72,3.72,0,0,1,1.19-.2,3.49,3.49,0,0,1,2.18.76,2.73,2.73,0,0,1,1,2.3v45.2a3.07,3.07,0,0,1-.27,1.33,2.51,2.51,0,0,1-.73,1,3.18,3.18,0,0,1-1,.56,4,4,0,0,1-1.19.17,3.54,3.54,0,0,1-2.18-.75,2.67,2.67,0,0,1-1-2.27Z"/><path class="cls-2" d="M173,4.67a4.4,4.4,0,0,1,.34-1.79,4.11,4.11,0,0,1,.9-1.33,3.81,3.81,0,0,1,1.29-.83A4.2,4.2,0,0,1,177,.43a4.48,4.48,0,0,1,2,.5,5.19,5.19,0,0,1,1.78,1.59l27.23,41V3.31a2.92,2.92,0,0,1,.25-1.26,2.68,2.68,0,0,1,.68-.9,3,3,0,0,1,1-.54,3.55,3.55,0,0,1,1.12-.18,3.4,3.4,0,0,1,1.08.18,3,3,0,0,1,1,.54,2.55,2.55,0,0,1,.68.9,2.92,2.92,0,0,1,.25,1.26V47.47a4.32,4.32,0,0,1-.36,1.8,3.85,3.85,0,0,1-1,1.33,4.42,4.42,0,0,1-1.38.83,4.73,4.73,0,0,1-3.72-.22,4.89,4.89,0,0,1-1.84-1.58L179,9.17v39.7a2.64,2.64,0,0,1-.27,1.24,2.8,2.8,0,0,1-.7.89,3,3,0,0,1-1,.54,3.5,3.5,0,0,1-1.12.17,3.27,3.27,0,0,1-2.06-.7,2.49,2.49,0,0,1-.92-2.14Z"/><path class="cls-2" d="M224.12,5.68a2.38,2.38,0,0,1-2-.83,2.77,2.77,0,0,1,0-3.61,2.42,2.42,0,0,1,2-.81h34.35a2.47,2.47,0,0,1,2,.81,2.82,2.82,0,0,1,.67,1.82,2.74,2.74,0,0,1-.69,1.79,2.42,2.42,0,0,1-2,.83H244.62v43a3.1,3.1,0,0,1-.27,1.33,2.66,2.66,0,0,1-.73.95,3.48,3.48,0,0,1-1.05.58,3.55,3.55,0,0,1-1.15.19,3.48,3.48,0,0,1-2.21-.77,2.7,2.7,0,0,1-1-2.28v-43Z"/></g></g></svg>